<?xml version="1.0" encoding="UTF-8"?>
<svg width="85px" height="86px" viewBox="0 0 85 86" version="1.1" xmlns="http://www.w3.org/2000/svg">
    <title>HealthData.ai Icon</title>
    <g stroke="none" stroke-width="1" fill="none" fill-rule="evenodd">
        <path d="M29.183,1.596 C30.646,1.596 31.831,2.782 31.831,4.244 C31.831,5.707 30.646,6.892 29.183,6.892 C27.72,6.892 26.535,5.707 26.535,4.244 C26.535,2.782 27.72,1.596 29.183,1.596" fill="#1A1919"/>
        <path d="M42.423,0.272 C44.617,0.272 46.395,2.05 46.395,4.244 C46.395,6.438 44.617,8.217 42.423,8.217 C40.229,8.217 38.451,6.438 38.451,4.244 C38.451,2.05 40.229,0.272 42.423,0.272" fill="#1A1919"/>
        <path d="M55.664,1.596 C57.126,1.596 58.312,2.782 58.312,4.244 C58.312,5.707 57.126,6.892 55.664,6.892 C54.201,6.892 53.015,5.707 53.015,4.244 C53.015,2.782 54.201,1.596 55.664,1.596" fill="#1A1919"/>
        <path d="M2.702,14.714 C4.165,14.714 5.35,15.9 5.35,17.363 C5.35,18.825 4.165,20.011 2.702,20.011 C1.24,20.011 0.054,18.825 0.054,17.363 C0.054,15.9 1.24,14.714 2.702,14.714" fill="#1A1919"/>
        <path d="M15.943,13.39 C18.137,13.39 19.915,15.169 19.915,17.362 C19.915,19.556 18.137,21.335 15.943,21.335 C13.749,21.335 11.97,19.556 11.97,17.362 C11.97,15.169 13.749,13.39 15.943,13.39" fill="#1A1919"/>
        <path d="M29.183,12.066 C32.108,12.066 34.479,14.437 34.479,17.362 C34.479,20.287 32.108,22.659 29.183,22.659 C26.258,22.659 23.887,20.287 23.887,17.362 C23.887,14.437 26.258,12.066 29.183,12.066" fill="#1A1919"/>
        <path d="M42.423,12.066 C45.348,12.066 47.719,14.437 47.719,17.362 C47.719,20.287 45.348,22.659 42.423,22.659 C39.498,22.659 37.127,20.287 37.127,17.362 C37.127,14.437 39.498,12.066 42.423,12.066" fill="#1A1919"/>
        <path d="M55.664,12.066 C58.589,12.066 60.96,14.437 60.96,17.362 C60.96,20.287 58.589,22.659 55.664,22.659 C52.738,22.659 50.367,20.287 50.367,17.362 C50.367,14.437 52.738,12.066 55.664,12.066" fill="#1A1919"/>
        <path d="M68.904,13.39 C71.098,13.39 72.876,15.169 72.876,17.362 C72.876,19.556 71.098,21.335 68.904,21.335 C66.71,21.335 64.932,19.556 64.932,17.362 C64.932,15.169 66.71,13.39 68.904,13.39" fill="#1A1919"/>
        <path d="M82.144,14.714 C83.607,14.714 84.792,15.9 84.792,17.363 C84.792,18.825 83.607,20.011 82.144,20.011 C80.682,20.011 79.496,18.825 79.496,17.363 C79.496,15.9 80.682,14.714 82.144,14.714" fill="#1A1919"/>
        <path d="M2.702,27.832 C4.165,27.832 5.35,29.018 5.35,30.48 C5.35,31.943 4.165,33.129 2.702,33.129 C1.24,33.129 0.054,31.943 0.054,30.48 C0.054,29.018 1.24,27.832 2.702,27.832" fill="#1A1919"/>
        <path d="M15.943,25.184 C18.868,25.184 21.239,27.556 21.239,30.48 C21.239,33.406 18.868,35.777 15.943,35.777 C13.017,35.777 10.647,33.406 10.647,30.48 C10.647,27.556 13.017,25.184 15.943,25.184" fill="#1A1919"/>
        <path d="M29.183,25.184 C32.108,25.184 34.479,27.556 34.479,30.48 C34.479,33.406 32.108,35.777 29.183,35.777 C26.258,35.777 23.887,33.406 23.887,30.48 C23.887,27.556 26.258,25.184 29.183,25.184" fill="#1A1919"/>
        <path d="M42.423,25.184 C45.348,25.184 47.719,27.556 47.719,30.48 C47.719,33.406 45.348,35.777 42.423,35.777 C39.498,35.777 37.127,33.406 37.127,30.48 C37.127,27.556 39.498,25.184 42.423,25.184" fill="#1A1919"/>
        <path d="M55.664,25.184 C58.589,25.184 60.96,27.556 60.96,30.48 C60.96,33.406 58.589,35.777 55.664,35.777 C52.738,35.777 50.367,33.406 50.367,30.48 C50.367,27.556 52.738,25.184 55.664,25.184" fill="#1A1919"/>
        <path d="M68.904,25.184 C71.829,25.184 74.2,27.556 74.2,30.48 C74.2,33.406 71.829,35.777 68.904,35.777 C65.979,35.777 63.608,33.406 63.608,30.48 C63.608,27.556 65.979,25.184 68.904,25.184" fill="#1A1919"/>
        <path d="M82.144,26.508 C84.338,26.508 86.116,28.287 86.116,30.48 C86.116,32.674 84.338,34.453 82.144,34.453 C79.95,34.453 78.172,32.674 78.172,30.48 C78.172,28.287 79.95,26.508 82.144,26.508" fill="#1A1919"/>
        <path d="M15.943,40.951 C17.405,40.951 18.591,42.136 18.591,43.599 C18.591,45.061 17.405,46.247 15.943,46.247 C14.48,46.247 13.294,45.061 13.294,43.599 C13.294,42.136 14.48,40.951 15.943,40.951" fill="#1A1919"/>
        <path d="M29.183,39.626 C31.377,39.626 33.155,41.405 33.155,43.599 C33.155,45.793 31.377,47.571 29.183,47.571 C26.989,47.571 25.211,45.793 25.211,43.599 C25.211,41.405 26.989,39.626 29.183,39.626" fill="#1A1919"/>
        <path d="M42.423,38.303 C45.348,38.303 47.719,40.674 47.719,43.599 C47.719,46.524 45.348,48.895 42.423,48.895 C39.498,48.895 37.127,46.524 37.127,43.599 C37.127,40.674 39.498,38.303 42.423,38.303" fill="#1A1919"/>
        <path d="M60.96,43.599 C60.96,46.524 58.589,48.895 55.664,48.895 C52.738,48.895 50.367,46.524 50.367,43.599 C50.367,40.674 52.738,38.303 55.664,38.303 C58.589,38.303 60.96,40.674 60.96,43.599 Z" fill="#1A1919"/>
        <path d="M68.904,38.303 C71.829,38.303 74.2,40.674 74.2,43.599 C74.2,46.524 71.829,48.895 68.904,48.895 C65.979,48.895 63.608,46.524 63.608,43.599 C63.608,40.674 65.979,38.303 68.904,38.303" fill="#1A1919"/>
        <path d="M82.144,40.951 C83.607,40.951 84.792,42.136 84.792,43.599 C84.792,45.061 83.607,46.247 82.144,46.247 C80.682,46.247 79.496,45.061 79.496,43.599 C79.496,42.136 80.682,40.951 82.144,40.951" fill="#1A1919"/>
        <path d="M29.183,54.069 C30.646,54.069 31.831,55.254 31.831,56.717 C31.831,58.179 30.646,59.365 29.183,59.365 C27.72,59.365 26.535,58.179 26.535,56.717 C26.535,55.254 27.72,54.069 29.183,54.069" fill="#1A1919"/>
        <path d="M42.423,51.421 C45.348,51.421 47.719,53.792 47.719,56.717 C47.719,59.642 45.348,62.013 42.423,62.013 C39.498,62.013 37.127,59.642 37.127,56.717 C37.127,53.792 39.498,51.421 42.423,51.421" fill="#1A1919"/>
        <path d="M55.664,52.745 C57.857,52.745 59.636,54.523 59.636,56.717 C59.636,58.911 57.857,60.689 55.664,60.689 C53.47,60.689 51.691,58.911 51.691,56.717 C51.691,54.523 53.47,52.745 55.664,52.745" fill="#1A1919"/>
        <path d="M42.423,65.863 C44.617,65.863 46.395,67.641 46.395,69.835 C46.395,72.029 44.617,73.807 42.423,73.807 C40.229,73.807 38.451,72.029 38.451,69.835 C38.451,67.641 40.229,65.863 42.423,65.863" fill="#1A1919"/>
        <path d="M68.904,54.069 C70.366,54.069 71.552,55.254 71.552,56.717 C71.552,58.179 70.366,59.365 68.904,59.365 C67.441,59.365 66.256,58.179 66.256,56.717 C66.256,55.254 67.441,54.069 68.904,54.069" fill="#1A1919"/>
        <path d="M55.664,67.187 C57.126,67.187 58.312,68.373 58.312,69.835 C58.312,71.298 57.126,72.483 55.664,72.483 C54.201,72.483 53.015,71.298 53.015,69.835 C53.015,68.373 54.201,67.187 55.664,67.187" fill="#1A1919"/>
        <path d="M42.423,80.305 C43.886,80.305 45.071,81.491 45.071,82.953 C45.071,84.416 43.886,85.601 42.423,85.601 C40.961,85.601 39.775,84.416 39.775,82.953 C39.775,81.491 40.961,80.305 42.423,80.305" fill="#1A1919"/>
        <path d="M21.203,44.417 C18.074,43.662 15.122,42.832 12.583,41.899 C8.789,40.506 5.849,38.844 4.457,36.799 C4.296,36.708 4.141,36.608 3.991,36.498 L3.992,36.496 C2.474,35.385 1.625,33.373 1.412,31.135 C1.21,29.024 1.565,26.668 2.452,24.711 C2.697,24.169 2.989,23.648 3.328,23.162 C5.638,16.738 7.025,16.079 8.411,15.421 C8.844,15.216 9.278,15.01 9.796,14.301 L9.806,14.286 C11.902,11.516 14.452,9.213 17.726,7.658 C20.898,6.15 24.724,5.362 29.443,5.553 C31.618,4.411 33.591,3.559 35.276,3.173 C36.987,2.782 38.452,2.852 39.605,3.537 C41.987,2.665 44.339,2.026 46.615,1.987 C48.964,1.947 51.181,2.538 53.189,4.138 C54.347,3.64 55.552,3.332 56.878,3.531 C58.319,3.748 59.801,4.556 61.354,6.363 C62.804,6.125 64.351,6.332 66.007,7.036 C67.799,7.799 69.727,9.155 71.807,11.175 C72.939,11.671 73.926,12.311 74.732,13.127 C75.516,13.921 76.121,14.869 76.512,15.997 C78.12,17.127 79.513,18.39 80.482,19.917 C81.525,21.559 82.071,23.468 81.868,25.777 C83.422,29.972 83.998,35.224 83.871,39.802 C83.745,44.331 82.86,48.305 81.488,50.178 C81.724,50.763 81.773,51.38 81.629,52.029 C81.431,52.916 80.858,53.796 79.891,54.666 L79.619,54.854 C79.086,55.125 78.602,55.555 78.166,56.138 C77.683,56.782 77.257,57.609 76.885,58.612 L76.416,59.214 C74.468,60.548 72.501,60.059 70.529,59.12 C70.776,60.255 70.865,61.29 70.811,62.219 C70.708,63.987 70.1,65.397 69.072,66.431 C68.053,67.454 66.657,68.069 64.965,68.257 C63.23,68.449 61.161,68.187 58.858,67.45 C57.508,67.618 56.147,67.282 54.775,66.401 C53.916,65.85 53.05,65.077 52.179,64.071 C51.853,65.647 51.815,67.477 51.778,69.284 C51.716,72.319 51.654,75.298 50.321,77.514 L49.808,78.366 L44.924,76.84 L42.164,61.357 C40.77,60.629 40.265,59.742 39.675,58.707 C39.604,58.582 39.531,58.454 39.45,58.318 C39.328,58.275 39.211,58.225 39.1,58.169 L39.031,58.134 C38.786,58.213 38.537,58.282 38.285,58.34 C37.817,58.448 37.332,58.522 36.838,58.573 L36.214,58.638 L35.787,58.178 C35.135,57.476 35.003,56.776 34.934,56.077 C34.003,55.434 32.904,55.062 31.796,54.688 C30.128,54.123 28.442,53.552 26.891,52.089 L26.876,52.074 C26.351,51.565 26.068,51.044 25.983,50.515 C25.624,50.46 25.272,50.33 24.925,50.14 C24.406,49.855 23.926,49.428 23.465,48.935 C22.128,48.824 21.229,48.26 20.76,47.557 C20.381,46.988 20.275,46.336 20.425,45.706 L20.42,45.705 C20.534,45.23 20.797,44.782 21.203,44.417 Z M13.451,39.531 C17.133,40.884 21.733,42.018 26.474,43.021 L28.095,43.364 L26.319,46.799 L25.272,46.403 C24.074,45.949 23.307,45.994 22.94,46.244 C23.104,46.365 23.453,46.448 24.025,46.438 L24.614,46.428 L24.997,46.872 C25.401,47.34 25.79,47.738 26.139,47.929 C26.263,47.998 26.375,48.022 26.464,47.971 L27.2,47.552 L29.405,49.285 L28.555,50.202 C28.572,50.215 28.593,50.232 28.617,50.254 C29.769,51.34 31.195,51.823 32.606,52.3 C34.092,52.803 35.565,53.301 36.946,54.448 L37.395,55.287 L37.424,55.573 C37.435,55.698 37.446,55.822 37.461,55.938 C37.549,55.921 37.636,55.903 37.723,55.883 C38.072,55.803 38.404,55.699 38.713,55.564 L39.489,55.225 L40.094,55.816 C40.138,55.859 40.185,55.895 40.234,55.919 C40.283,55.944 40.342,55.962 40.414,55.972 L40.991,56.046 L41.307,56.529 C41.506,56.832 41.69,57.155 41.866,57.464 C42.306,58.237 42.674,58.884 43.766,59.33 L44.414,59.595 L47.141,74.891 L48.575,75.339 C49.17,73.708 49.216,71.489 49.262,69.234 C49.323,66.269 49.385,63.25 50.627,60.866 L51.592,59.012 L52.782,60.733 C53.955,62.427 55.072,63.597 56.137,64.28 C57.055,64.87 57.921,65.074 58.737,64.921 L59.364,64.966 C61.428,65.657 63.233,65.911 64.689,65.75 C65.802,65.627 66.686,65.258 67.286,64.654 C67.877,64.06 68.23,63.2 68.295,62.081 C68.374,60.73 68.05,59.044 67.252,57.033 L69.018,55.459 C69.32,55.622 69.558,55.753 69.796,55.884 C71.597,56.878 73.398,57.87 74.695,57.299 C75.113,56.261 75.599,55.368 76.153,54.628 C76.787,53.781 77.508,53.131 78.317,52.688 C78.816,52.22 79.097,51.82 79.172,51.486 C79.221,51.264 79.141,51.028 78.939,50.78 L78.003,49.635 L79.289,48.896 C80.433,48.239 81.225,44.418 81.355,39.733 C81.477,35.335 80.92,30.306 79.41,26.393 L79.331,25.797 C79.539,23.985 79.142,22.515 78.351,21.268 C77.512,19.949 76.228,18.838 74.733,17.825 L74.225,17.129 C73.966,16.226 73.526,15.49 72.936,14.893 C72.324,14.273 71.539,13.786 70.616,13.403 L70.211,13.137 C68.299,11.254 66.576,10.017 65.02,9.355 C63.603,8.752 62.342,8.644 61.219,8.97 L60.397,9.21 L59.872,8.531 C58.591,6.872 57.494,6.176 56.504,6.028 C55.535,5.883 54.541,6.256 53.54,6.753 L52.762,7.139 L52.125,6.546 C50.487,5.021 48.635,4.469 46.655,4.503 C44.548,4.54 42.24,5.228 39.865,6.134 L39.144,6.409 L38.568,5.882 C38.026,5.387 37.083,5.346 35.838,5.63 C34.303,5.982 32.424,6.814 30.318,7.936 L29.666,8.084 C25.232,7.862 21.691,8.563 18.801,9.937 C15.937,11.298 13.685,13.339 11.819,15.806 C10.93,17.016 10.208,17.358 9.486,17.701 C8.566,18.137 7.646,18.574 5.652,24.159 L5.48,24.474 C5.207,24.848 4.963,25.277 4.751,25.746 C4.041,27.314 3.756,29.204 3.918,30.898 C4.067,32.463 4.582,33.813 5.476,34.466 L5.48,34.466 C5.595,34.549 5.718,34.622 5.85,34.681 L6.417,35.194 C7.371,36.82 9.966,38.251 13.451,39.531 L13.451,39.531 Z" fill="#FFFFFF"/>
    </g>
</svg>
